<?xml version="1.0" encoding="UTF-8"?>
<svg version="1.1" xmlns="http://www.w3.org/2000/svg" width="1280" height="1280">
<path d="M0 0 C23.48978747 -0.88441303 47.26009552 2.14106101 69.96435547 8.08251953 C70.83237793 8.30810547 71.70040039 8.53369141 72.59472656 8.76611328 C84.93257094 12.04693725 96.50514731 16.46713566 107.96435547 22.08251953 C108.64401367 22.41541992 109.32367187 22.74832031 110.02392578 23.09130859 C138.23682859 37.10869547 158.55152991 59.00431004 169.74951172 88.41064453 C179.265805 117.17371746 176.61761204 149.16054677 163.65185547 176.33251953 C160.3257151 182.73227334 156.38843674 188.40319297 151.96435547 194.08251953 C151.37654297 194.88560547 150.78873047 195.68869141 150.18310547 196.51611328 C146.28055758 201.77568351 142.08446662 206.01110584 136.96435547 210.08251953 C136.10197266 210.78119141 135.23958984 211.47986328 134.35107422 212.19970703 C105.39177908 234.84987292 68.34436835 246.31563019 32.00732422 248.63330078 C30.9836676 248.69934509 30.9836676 248.69934509 29.93933105 248.76672363 C28.28110216 248.87349527 26.62274207 248.97822607 24.96435547 249.08251953 C25.79233643 249.17227051 26.62031738 249.26202148 27.47338867 249.35449219 C59.82219295 252.93567228 89.84534428 259.61194746 119.96435547 272.08251953 C117.26844643 273.47427452 114.56780984 274.66568959 111.73388672 275.74658203 C96.12525454 281.85554018 88.42314708 288.94179132 79.03466797 302.66064453 C76.14369785 306.8673649 73.10955646 310.93811724 69.96435547 314.95751953 C69.51979004 315.5338916 69.07522461 316.11026367 68.6171875 316.70410156 C66.31421887 319.62483251 64.07302483 322.02446528 60.96435547 324.08251953 C60.49126953 323.33228516 60.01818359 322.58205078 59.53076172 321.80908203 C54.87794666 314.60764898 49.98301754 308.21245099 43.96435547 302.08251953 C43.22830078 301.32197266 42.49224609 300.56142578 41.73388672 299.77783203 C19.88801038 278.62721809 -13.44686381 271.99943785 -42.72314453 271.83251953 C-44.41564331 271.81850098 -44.41564331 271.81850098 -46.14233398 271.80419922 C-60.05382578 271.76410736 -60.05382578 271.76410736 -73.03564453 276.08251953 C-75.28386258 281.10643163 -75.32655669 285.76481035 -75.31411743 291.15609741 C-75.31990983 292.05960548 -75.32570224 292.96311355 -75.33167017 293.89400065 C-75.34864952 296.91569826 -75.35154491 299.93724294 -75.35449219 302.95898438 C-75.36379178 305.12733331 -75.37396049 307.29567866 -75.38493347 309.46401978 C-75.41224398 315.34776676 -75.42738606 321.23148978 -75.4403615 327.11528349 C-75.45598738 333.26524829 -75.48277935 339.41516414 -75.50839233 345.56509399 C-75.55518968 357.20964582 -75.59192921 368.85420685 -75.62506521 380.49880469 C-75.6632798 393.75627931 -75.71269172 407.01370477 -75.76304936 420.27113795 C-75.86638346 447.54156205 -75.9556391 474.81201772 -76.03564453 502.08251953 C-84.7648135 500.8347419 -91.25413215 495.62026553 -96.84814453 488.89501953 C-101.4081772 482.57611712 -104.3161414 475.29004969 -107.25048828 468.10986328 C-111.27517852 459.02066922 -117.63394537 452.61996724 -124.61865234 445.72314453 C-126.03564453 444.08251953 -126.03564453 444.08251953 -126.97607422 442.00439453 C-128.30984385 439.58516998 -129.56461225 439.21378259 -132.03564453 438.08251953 C-133.55273438 436.65307617 -133.55273438 436.65307617 -134.99658203 434.99267578 C-135.81727173 434.07156006 -135.81727173 434.07156006 -136.65454102 433.13183594 C-137.52381226 432.14836182 -137.52381226 432.14836182 -138.41064453 431.14501953 C-143.56944734 425.43365861 -148.85620005 420.46112958 -155.15234375 416.02416992 C-163.53221707 409.93576631 -168.25853615 401.38284427 -172.66064453 392.20751953 C-173.11181641 391.29099609 -173.56298828 390.37447266 -174.02783203 389.43017578 C-176.78289441 383.80129834 -179.38998172 378.11846023 -181.9050293 372.37841797 C-183.79064913 368.54935969 -186.19325901 366.01009689 -190.01332784 364.08682442 C-195.57871786 361.2266392 -195.57871786 361.2266392 -196.77720022 358.22570419 C-197.05851586 355.91473717 -197.08337774 353.71818634 -197.02459717 351.390625 C-197.03425483 350.5160005 -197.04391249 349.641376 -197.05386281 348.74024773 C-197.07641166 345.80885252 -197.0417756 342.88094545 -197.00732422 339.94970703 C-197.01161596 337.84872492 -197.0193714 335.74774744 -197.03033447 333.64678955 C-197.04973478 327.93985333 -197.01910046 322.23416697 -196.9785223 316.5273819 C-196.94340603 310.55863348 -196.95042997 304.58992441 -196.95196533 298.62109375 C-196.94821827 288.59695501 -196.91347751 278.5733004 -196.85888672 268.54931641 C-196.79598366 256.95611571 -196.77489425 245.36344531 -196.77782893 233.77008629 C-196.78026968 222.62303678 -196.75985145 211.47616017 -196.72666168 200.3291626 C-196.71253132 195.58285167 -196.70520884 190.83660193 -196.70308685 186.090271 C-196.69907092 180.50214964 -196.67466757 174.91447416 -196.6344223 169.32649994 C-196.62273131 167.27422567 -196.61781904 165.22190008 -196.62013245 163.16959381 C-196.62209363 160.37072542 -196.59949365 157.5731082 -196.57049561 154.77441406 C-196.57669001 153.95972593 -196.58288442 153.1450378 -196.58926654 152.30566216 C-196.50194161 147.21206233 -195.53948593 144.74617209 -192.03564453 141.08251953 C-191.00573431 138.4879436 -191.00573431 138.4879436 -190.41064453 135.77001953 C-190.19150391 134.88701172 -189.97236328 134.00400391 -189.74658203 133.09423828 C-189.20607826 130.80452177 -188.68953164 128.50913479 -188.18408203 126.21142578 C-187.10844881 121.93166031 -185.33417746 118.22381434 -183.28564453 114.33251953 C-182.55964851 112.9318589 -181.83439431 111.53081353 -181.10986328 110.12939453 C-180.75456543 109.44554687 -180.39926758 108.76169922 -180.03320312 108.05712891 C-179.13669012 106.28253341 -178.30993758 104.47310361 -177.49267578 102.66064453 C-172.94613677 92.62514665 -166.50171184 86.40430049 -156.32080078 82.09423828 C-151.51080978 80.61292119 -146.63691564 79.9496193 -141.66210938 79.24755859 C-136.09606043 78.41317712 -131.70044829 76.78333064 -126.67236328 74.21923828 C-120.93766721 71.74694708 -114.48885406 71.23993079 -108.29345703 70.95751953 C-96.83847491 70.41366281 -86.23929379 66.09538625 -78.03564453 58.08251953 C-77.37564453 58.08251953 -76.71564453 58.08251953 -76.03564453 58.08251953 C-76.03325618 59.00558238 -76.03086782 59.92864523 -76.0284071 60.87967968 C-75.96963707 83.33010037 -75.89376974 105.78041351 -75.79992962 128.23071575 C-75.75494606 139.08747577 -75.71553729 149.94420279 -75.68920898 160.80102539 C-75.66624965 170.26279423 -75.63287475 179.72445888 -75.58694297 189.18614513 C-75.56298291 194.19698025 -75.54427237 199.20771201 -75.53803062 204.21860313 C-75.53199237 208.93409665 -75.51203815 213.64932562 -75.48136902 218.3647213 C-75.47256858 220.09610153 -75.46887035 221.8275163 -75.47063637 223.558918 C-75.47228591 225.92216912 -75.45561791 228.28461069 -75.43437195 230.64775085 C-75.43921952 231.33355734 -75.4440671 232.01936383 -75.44906157 232.72595233 C-75.38570487 236.99348456 -74.65249288 239.69228895 -72.03564453 243.08251953 C-63.3498518 247.4254159 -51.48936446 246.29674176 -42.03564453 246.08251953 C-41.1992041 246.06463379 -40.36276367 246.04674805 -39.50097656 246.02832031 C-11.48907663 245.35280011 14.47230978 241.69939183 35.77685547 222.02001953 C55.75811972 200.92051075 59.68866542 169.92121516 58.96435547 142.08251953 C58.94646973 141.35355469 58.92858398 140.62458984 58.91015625 139.87353516 C58.0745053 109.49731828 54.89214781 72.47308019 33.09326172 49.01611328 C12.7470377 30.53651532 -12.53271884 26.39045612 -39.03564453 25.08251953 C-36.30940795 22.26914297 -33.49542553 19.74669596 -30.41064453 17.33251953 C-29.63462891 16.71892578 -28.85861328 16.10533203 -28.05908203 15.47314453 C-26.03564453 14.08251953 -26.03564453 14.08251953 -24.03564453 14.08251953 C-23.37564453 12.43251953 -22.71564453 10.78251953 -22.03564453 9.08251953 C-21.37564453 9.08251953 -20.71564453 9.08251953 -20.03564453 9.08251953 C-19.74689453 8.31939453 -19.45814453 7.55626953 -19.16064453 6.77001953 C-18.03564453 4.08251953 -18.03564453 4.08251953 -16.03564453 1.08251953 C-10.782356 0.04453944 -5.34236606 0.21656509 0 0 Z " fill="#CEC9C3" transform="translate(659.03564453125,331.91748046875)"/>
<path d="M0 0 C1.40034348 0.76236132 2.79082172 1.54306995 4.171875 2.33984375 C4.90696289 2.7474292 5.64205078 3.15501465 6.39941406 3.57495117 C8.58351006 4.79238246 10.75324922 6.03261753 12.921875 7.27734375 C14.11935923 7.94998918 15.31724088 8.62192787 16.515625 9.29296875 C21.30370579 12.01885633 25.64383121 14.79975155 29.921875 18.27734375 C31.58452614 19.44972597 33.25138905 20.6161523 34.921875 21.77734375 C47.83503702 31.14025637 61.18079355 43.19161122 68.921875 57.27734375 C68.921875 57.93734375 68.921875 58.59734375 68.921875 59.27734375 C69.581875 59.27734375 70.241875 59.27734375 70.921875 59.27734375 C77.36730608 70.73088417 82.39037175 81.61723775 85.921875 94.27734375 C86.42568337 95.72275606 86.93372183 97.1666988 87.4453125 98.609375 C96.52487937 125.650507 94.1579299 162.09494621 86.921875 189.27734375 C86.261875 189.27734375 85.601875 189.27734375 84.921875 189.27734375 C84.86 190.32921875 84.798125 191.38109375 84.734375 192.46484375 C83.1987612 204.29322028 76.64092901 215.01710541 70.921875 225.27734375 C70.261875 225.27734375 69.601875 225.27734375 68.921875 225.27734375 C68.674375 225.97859375 68.426875 226.67984375 68.171875 227.40234375 C65.90951512 232.60577147 62.50136508 236.91484021 58.921875 241.27734375 C58.261875 242.12296875 57.601875 242.96859375 56.921875 243.83984375 C55.03147142 246.14377311 53.06073318 248.20532489 50.921875 250.27734375 C50.2825 250.91671875 49.643125 251.55609375 48.984375 252.21484375 C48.30375 252.89546875 47.623125 253.57609375 46.921875 254.27734375 C45.7153125 255.51484375 45.7153125 255.51484375 44.484375 256.77734375 C42.07034733 259.13249269 39.55264036 261.17273147 36.921875 263.27734375 C35.7153125 264.51484375 35.7153125 264.51484375 34.484375 265.77734375 C31.78641249 268.4095023 29.09436125 270.24216389 25.921875 272.27734375 C23.34037089 274.14086703 20.76151381 276.00750032 18.19140625 277.88671875 C15.921875 279.27734375 15.921875 279.27734375 12.921875 279.27734375 C12.591875 280.26734375 12.261875 281.25734375 11.921875 282.27734375 C9.70703125 283.6640625 9.70703125 283.6640625 6.984375 284.96484375 C6.08847656 285.40183594 5.19257812 285.83882812 4.26953125 286.2890625 C1.921875 287.27734375 1.921875 287.27734375 -0.078125 287.27734375 C-0.078125 287.93734375 -0.078125 288.59734375 -0.078125 289.27734375 C-1.20089844 289.73625 -2.32367187 290.19515625 -3.48046875 290.66796875 C-4.99229614 291.28749538 -6.50400731 291.90730566 -8.015625 292.52734375 C-8.7981665 292.84799805 -9.58070801 293.16865234 -10.38696289 293.49902344 C-14.29746702 295.10796305 -18.17881915 296.74795553 -22.015625 298.52734375 C-27.82393753 301.14899454 -33.67464027 303.27734375 -40.078125 303.27734375 C-40.078125 303.93734375 -40.078125 304.59734375 -40.078125 305.27734375 C-62.82631891 310.59092348 -62.82631891 310.59092348 -72.12890625 311.91796875 C-74.07633133 312.08649034 -74.07633133 312.08649034 -75.078125 313.27734375 C-78.17309936 313.94098686 -81.32027402 314.33167886 -84.453125 314.77734375 C-85.38600342 314.91116455 -86.31888184 315.04498535 -87.2800293 315.18286133 C-96.52642051 316.44497307 -105.75732531 316.96842582 -115.078125 317.27734375 C-115.36816406 315.34181641 -115.36816406 315.34181641 -115.6640625 313.3671875 C-115.92684695 311.6497034 -116.18988104 309.93225748 -116.453125 308.21484375 C-116.57945312 307.36728516 -116.70578125 306.51972656 -116.8359375 305.64648438 C-117.59722462 300.71715029 -118.59192632 296.03964126 -120.078125 291.27734375 C-120.861875 291.13296875 -121.645625 290.98859375 -122.453125 290.83984375 C-125.078125 290.27734375 -125.078125 290.27734375 -127.078125 289.27734375 C-127.078125 288.61734375 -127.078125 287.95734375 -127.078125 287.27734375 C-133.348125 286.94734375 -139.618125 286.61734375 -146.078125 286.27734375 C-146.078125 285.61734375 -146.078125 284.95734375 -146.078125 284.27734375 C-145.02753906 284.035 -143.97695313 283.79265625 -142.89453125 283.54296875 C-135.26247918 281.73911187 -128.09244862 279.87101999 -121.078125 276.27734375 C-120.30597656 275.90867187 -119.53382813 275.54 -118.73828125 275.16015625 C-104.89872505 268.55157475 -104.89872505 268.55157475 -93.48046875 258.5625 C-92.078125 257.27734375 -92.078125 257.27734375 -89.078125 257.27734375 C-88.8925 256.61734375 -88.706875 255.95734375 -88.515625 255.27734375 C-87.14734369 252.42180014 -85.89495899 250.87193431 -83.765625 248.58984375 C-79.82463415 244.27783912 -77.43825327 239.58491332 -75.078125 234.27734375 C-74.418125 234.27734375 -73.758125 234.27734375 -73.078125 234.27734375 C-72.88863281 233.20613281 -72.88863281 233.20613281 -72.6953125 232.11328125 C-72.07331081 229.25522283 -71.21665992 226.64438783 -70.203125 223.90234375 C-69.87570312 223.00773438 -69.54828125 222.113125 -69.2109375 221.19140625 C-68.40295604 219.11294359 -67.51443928 217.06505342 -66.57421875 215.04296875 C-64.67527067 210.64206066 -63.86169105 206.10088529 -63.015625 201.40234375 C-62.84571045 200.4906543 -62.6757959 199.57896484 -62.50073242 198.63964844 C-61.28040869 191.90238348 -60.35089959 185.15701235 -59.67358398 178.34423828 C-59.17105886 173.37027761 -59.17105886 173.37027761 -58.078125 172.27734375 C-57.82954714 169.68722383 -57.64788229 167.12432179 -57.515625 164.52734375 C-57.4530249 163.32863647 -57.4530249 163.32863647 -57.38916016 162.10571289 C-56.78065904 149.24895361 -56.80324742 136.37902038 -57.515625 123.52734375 C-57.55478027 122.80603271 -57.59393555 122.08472168 -57.63427734 121.34155273 C-57.58919649 118.02149592 -57.58919649 118.02149592 -59.078125 115.27734375 C-59.42329203 113.5355547 -59.71378038 111.78286267 -59.98046875 110.02734375 C-60.14869141 108.94324219 -60.31691406 107.85914063 -60.49023438 106.7421875 C-60.66361328 105.59878906 -60.83699219 104.45539063 -61.015625 103.27734375 C-62.55391508 93.16876523 -62.55391508 93.16876523 -64.71313477 83.1796875 C-65.078125 81.27734375 -65.078125 81.27734375 -65.078125 77.27734375 C-65.738125 77.27734375 -66.398125 77.27734375 -67.078125 77.27734375 C-68.09063275 74.74004754 -69.08822073 72.19844887 -70.078125 69.65234375 C-70.36429688 68.93949219 -70.65046875 68.22664062 -70.9453125 67.4921875 C-72.560673 63.29994239 -73.62792414 59.84335857 -73.078125 55.27734375 C-71.47287927 53.0583276 -69.95006251 51.23702833 -68.078125 49.27734375 C-64.65491582 45.42623343 -61.71695289 41.71537247 -59.078125 37.27734375 C-58.1190625 36.34921875 -58.1190625 36.34921875 -57.140625 35.40234375 C-55.26846592 33.47345257 -54.22731262 31.9155914 -52.953125 29.58984375 C-51.078125 26.27734375 -51.078125 26.27734375 -49.078125 25.27734375 C-48.1197016 23.55879145 -47.16206641 21.83978763 -46.2109375 20.1171875 C-43.47558673 15.67460055 -39.25278032 12.32371385 -35.078125 9.27734375 C-34.418125 9.27734375 -33.758125 9.27734375 -33.078125 9.27734375 C-33.078125 8.61734375 -33.078125 7.95734375 -33.078125 7.27734375 C-31.86253906 6.86742187 -30.64695312 6.4575 -29.39453125 6.03515625 C-27.80976331 5.4912714 -26.22513503 4.94697949 -24.640625 4.40234375 C-23.83818359 4.13292969 -23.03574219 3.86351562 -22.20898438 3.5859375 C-21.44521484 3.32167969 -20.68144531 3.05742188 -19.89453125 2.78515625 C-19.18756104 2.5442627 -18.48059082 2.30336914 -17.75219727 2.05517578 C-15.87773695 1.39548616 -15.87773695 1.39548616 -15.078125 -0.72265625 C-9.68371084 -2.5207943 -5.07775037 -2.47167685 0 0 Z " fill="#CEC9C3" transform="translate(805.078125,609.72265625)"/>
<path d="M0 0 C3.65748137 -0.19120054 4.7589629 -0.15898192 7.9375 1.9375 C14.20615791 7.69180649 17.49121496 14.8912305 20.5859375 22.66796875 C22.22254872 26.52440347 24.05603503 30.22860751 26 33.9375 C26.3201709 34.56414551 26.6403418 35.19079102 26.97021484 35.83642578 C29.14329159 39.91601813 31.59721941 42.89265462 35 46 C35.71800781 46.65742187 36.43601562 47.31484375 37.17578125 47.9921875 C37.88089844 48.61351562 38.58601563 49.23484375 39.3125 49.875 C40.09238281 50.5659375 40.87226563 51.256875 41.67578125 51.96875 C43.12054861 53.23140383 44.57470401 54.48349859 46.04296875 55.71875 C50.77054717 59.71973453 54.87595874 64.07191991 58.97265625 68.71484375 C61.68483745 71.77192661 64.54520946 74.64859559 67.5390625 77.4296875 C74.55216128 84.12255346 81.16951481 91.6232385 84 101 C85.16563893 103.56519859 86.43419127 106.05129011 87.734375 108.55078125 C88.76376858 110.54284846 89.70776723 112.57886536 90.625 114.625 C94.33474567 121.05217254 102.18849591 125.56467095 109 128 C109.10957031 129.12019531 109.21914063 130.24039063 109.33203125 131.39453125 C109.49149893 132.86726222 109.65169317 134.33991465 109.8125 135.8125 C109.91788086 136.91948242 109.91788086 136.91948242 110.02539062 138.04882812 C110.47442425 142.21009661 110.47442425 142.21009661 112.32421875 145.88671875 C114.15496151 147.10294646 115.99470153 148.1010731 118 149 C116.19372223 154.71987961 114.12719802 160.28102833 111.8828125 165.83984375 C111.6051001 166.53074097 111.3273877 167.22163818 111.04125977 167.93347168 C110.36202597 169.62279185 109.68117805 171.31146287 109 173 C88.46854171 173.14008657 67.93716207 173.24593001 47.40532303 173.31087303 C37.8722665 173.34182714 28.33950671 173.38403719 18.80664062 173.45263672 C10.4989454 173.51239135 2.19146504 173.55113784 -6.1164391 173.56453097 C-10.51660457 173.57236152 -14.9161553 173.59079653 -19.31612396 173.63438034 C-23.45635902 173.6750597 -27.59572529 173.68767888 -31.7361412 173.67864609 C-33.25676315 173.68029887 -34.77741367 173.6922627 -36.29786301 173.71523285 C-38.37321001 173.74505221 -40.44526934 173.7379308 -42.52069092 173.7215271 C-43.68215008 173.72705786 -44.84360924 173.73258862 -46.04026413 173.73828697 C-49 173 -49 173 -51.37912369 170.14301491 C-53.19219231 166.62732302 -53.53804801 164.89250562 -53 161 C-51.46445896 156.57601511 -49.4373627 153.19895277 -46 150 C-41.20920356 148.70938733 -36.72279595 149.09143149 -31.8125 149.5 C-23.1648563 150.01680921 -15.75980201 150.17697304 -7.3972168 147.67382812 C-5 147 -5 147 -2 147 C-1.14194858 143.27884421 -0.8653964 139.82333239 -0.84178162 136.00785828 C-0.8319928 134.80617508 -0.82220398 133.60449188 -0.81211853 132.36639404 C-0.80636307 131.05656555 -0.8006076 129.74673706 -0.79467773 128.3972168 C-0.78509271 126.9974794 -0.77508226 125.59774486 -0.76467896 124.19801331 C-0.73769148 120.40506024 -0.71664867 116.61209481 -0.69667697 112.81909919 C-0.67477935 108.85258731 -0.64740916 104.88611328 -0.62062073 100.91963196 C-0.57074485 93.41163413 -0.52578712 85.90361524 -0.48259836 78.3955763 C-0.43318232 69.84662585 -0.37828041 61.29771338 -0.32291877 52.74879968 C-0.2091771 35.16590158 -0.1023211 17.58296819 0 0 Z " fill="#CEC8C3" transform="translate(457,712)"/>
<path d="M0 0 C1.68051687 -0.02109117 3.36151419 -0.01414446 5.04192829 0.01396656 C5.9673744 0.00969444 6.89282051 0.00542231 7.84631044 0.00102073 C10.9606929 -0.00724339 14.07374142 0.02033257 17.18800068 0.04761219 C19.41501553 0.04902192 21.64203271 0.04823216 23.86904621 0.04539967 C29.92672882 0.04396118 35.98391949 0.07342134 42.04148746 0.10826945 C48.36758784 0.1394608 54.69369867 0.14245799 61.01986408 0.14839649 C71.64176195 0.16218676 82.26346485 0.19344792 92.8852663 0.23804188 C103.82633781 0.28392851 114.7673602 0.31932475 125.70850849 0.34058094 C126.38278132 0.34189456 127.05705415 0.34320818 127.75175949 0.3445616 C131.13434738 0.35108673 134.51693562 0.35740528 137.89952409 0.36362112 C165.96691896 0.415465 194.03411362 0.50391104 222.10133076 0.61523914 C221.04258002 4.01836653 220.09230921 6.62877146 218.10133076 9.61523914 C217.44133076 9.61523914 216.78133076 9.61523914 216.10133076 9.61523914 C215.84738544 10.21465321 215.59344013 10.81406727 215.33179951 11.43164539 C213.56113865 14.57386577 211.13018233 16.05357927 208.21070576 18.08789539 C206.12253395 19.51312036 206.12253395 19.51312036 204.61695576 21.11133289 C200.50344176 25.01474806 196.35685337 24.92026569 190.91383076 24.80273914 C189.41642326 24.76017885 187.91902727 24.71721169 186.42164326 24.67383289 C176.48853357 24.42398498 176.48853357 24.42398498 167.83961201 28.50586414 C165.07839879 31.85654984 165.00596996 34.51685917 165.10133076 38.69336414 C165.09939716 40.18803211 165.09939716 40.18803211 165.09742451 41.71289539 C165.10000965 43.799106 165.13341526 45.88552644 165.19898701 47.97070789 C165.11258856 55.42977416 165.11258856 55.42977416 162.19801044 58.84644032 C157.87689068 62.30342544 153.57492337 64.53826637 148.24195576 66.00977039 C146.05400315 66.56494683 146.05400315 66.56494683 143.94508076 67.63477039 C139.05661458 69.32021683 133.89287926 69.33330618 128.75758076 69.65039539 C123.32080506 70.08698496 119.05338664 71.19264131 114.16138935 73.62720203 C107.96346191 76.59982734 101.25659771 77.78896014 94.53883076 78.99023914 C88.27815047 80.20198372 83.26461991 81.85469329 78.10133076 85.61523914 C77.11648701 86.33195789 76.13164326 87.04867664 75.11695576 87.78711414 C71.56889013 90.7897949 69.8342574 94.3221732 67.91383076 98.49023914 C67.58447529 99.17215321 67.25511982 99.85406727 66.91578388 100.55664539 C64.85505234 104.85837129 62.95441139 109.22062687 61.10133076 113.61523914 C60.44133076 113.61523914 59.78133076 113.61523914 59.10133076 113.61523914 C58.93117451 114.33066883 58.76101826 115.04609852 58.58570576 115.78320789 C57.20506001 121.46001194 55.74980301 127.11724662 54.16383076 132.74023914 C53.86605732 133.81531727 53.56828388 134.89039539 53.26148701 135.99805164 C51.90729149 139.05297083 51.05407275 139.33390994 48.10133076 140.61523914 C48.0998642 140.06232323 48.09839764 139.50940731 48.09688663 138.93973637 C48.05983407 125.4857159 48.00058735 112.03195081 47.91742802 98.57813358 C47.87788465 92.07193701 47.84572973 85.56587717 47.83033466 79.05957508 C47.81521344 72.7830041 47.78084823 66.50680888 47.73302174 60.23040485 C47.71816115 57.83340943 47.71028708 55.43636038 47.70944691 53.03931904 C47.70708964 49.68693742 47.68010868 46.33560477 47.64722919 42.98340321 C47.65225956 41.98790455 47.65728992 40.99240589 47.66247272 39.96674061 C47.6519431 34.62414917 47.6519431 34.62414917 45.19270039 30.03046131 C43.11607603 28.62521722 41.36188553 27.68918006 38.97633076 26.92773914 C38.29312763 26.69699696 37.60992451 26.46625477 36.90601826 26.22852039 C26.89880787 24.04031422 16.73196572 24.61555593 6.56226826 25.00586414 C5.40211201 25.02648914 4.24195576 25.04711414 3.04664326 25.06836414 C2.00008564 25.10091297 0.95352802 25.1334618 -0.12474346 25.16699696 C-2.89866924 24.61523914 -2.89866924 24.61523914 -5.23924541 22.29785633 C-7.35587906 18.87611578 -7.40082548 16.61530518 -7.33616924 12.61523914 C-7.33488018 11.41898914 -7.33359112 10.22273914 -7.33226299 8.99023914 C-6.6178534 3.42942931 -5.85162782 0.9234306 0 0 Z " fill="#CEC8C3" transform="translate(403.8986692428589,323.3847608566284)"/>
<path d="M0 0 C1.11991333 0.0012085 1.11991333 0.0012085 2.26245117 0.00244141 C9.07918738 0.07817467 15.61294281 0.64804253 21.625 4.1875 C25.3660988 10.51859028 26.8883412 16.23041658 26.75 23.5625 C26.73195313 24.80773437 26.71390625 26.05296875 26.6953125 27.3359375 C26.67210937 28.27695312 26.64890625 29.21796875 26.625 30.1875 C26.03485107 30.21255615 25.44470215 30.2376123 24.83666992 30.26342773 C22.16173186 30.37950052 19.4871362 30.50217572 16.8125 30.625 C15.88373047 30.66431641 14.95496094 30.70363281 13.99804688 30.74414062 C13.10537109 30.78603516 12.21269531 30.82792969 11.29296875 30.87109375 C10.47078857 30.90775146 9.6486084 30.94440918 8.80151367 30.98217773 C6.44594822 31.12177772 6.44594822 31.12177772 3.625 32.1875 C1.4600098 32.28235782 -0.70793823 32.31738077 -2.875 32.3125 C-4.0196875 32.31507813 -5.164375 32.31765625 -6.34375 32.3203125 C-9.375 32.1875 -9.375 32.1875 -12.375 31.1875 C-14.56715453 31.06961998 -16.76262575 31.01058063 -18.95776367 30.98217773 C-19.62144455 30.97227814 -20.28512543 30.96237854 -20.96891785 30.95217896 C-23.16023199 30.9206191 -25.35156781 30.89582845 -27.54296875 30.87109375 C-29.06326355 30.85051945 -30.58355269 30.82952285 -32.10383606 30.80812073 C-36.10358087 30.75294916 -40.10337689 30.70351825 -44.10321045 30.65527344 C-48.18538974 30.6050225 -52.26749474 30.54935519 -56.34960938 30.49414062 C-64.3580101 30.38661918 -72.36647299 30.28516089 -80.375 30.1875 C-80.375 29.1975 -80.375 28.2075 -80.375 27.1875 C-79.715 27.1875 -79.055 27.1875 -78.375 27.1875 C-78.10236328 25.9190625 -78.10236328 25.9190625 -77.82421875 24.625 C-76.41228441 18.25319374 -74.86064763 12.22407281 -72.375 6.1875 C-71.715 6.1875 -71.055 6.1875 -70.375 6.1875 C-70.045 5.1975 -69.715 4.2075 -69.375 3.1875 C-68.24191406 3.21070313 -67.10882812 3.23390625 -65.94140625 3.2578125 C-54.25757819 3.41380648 -42.65725308 2.96628575 -31 2.25 C-30.27781281 2.20643372 -29.55562561 2.16286743 -28.81155396 2.11798096 C-19.18243001 1.53032068 -9.6408325 -0.01084336 0 0 Z " fill="#CEC9C3" transform="translate(634.375,898.8125)"/>
</svg>
